{
  "accessors": [
    {
      "bufferView": 2,
      "componentType": 5126,
      "count": 9730,
      "max": [
        0.99095898866653442,
        0.20271900296211243,
        1.1125270128250122
      ],
      "min": [
        -0.99095898866653442,
        -0.20271900296211243,
        -0.043666999787092209
      ],
      "type": "VEC3"
    },
    {
      "bufferView": 2,
      "byteOffset": 116760,
      "componentType": 5126,
      "count": 9730,
      "max": [
        0.99974232912063599,
        1,
        0.99974232912063599
      ],
      "min": [
        -0.99974232912063599,
        -1,
        -0.99974232912063599
      ],
      "type": "VEC3"
    },
    {
      "bufferView": 3,
      "componentType": 5126,
      "count": 9730,
      "max": [
        0,
        0,
        0,
        1
      ],
      "min": [
        0,
        0,
        0,
        1
      ],
      "type": "VEC4"
    },
    {
      "bufferView": 1,
      "componentType": 5126,
      "count": 9730,
      "max": [
        0,
        0
      ],
      "min": [
        0,
        0
      ],
      "type": "VEC2"
    },
    {
      "bufferView": 0,
      "componentType": 5125,
      "count": 35628,
      "max": [
        9729
      ],
      "min": [
        0
      ],
      "type": "SCALAR"
    },
    {
      "bufferView": 2,
      "byteOffset": 233520,
      "componentType": 5126,
      "count": 9278,
      "max": [
        0.97413802146911621,
        0.11319799721240997,
        0.6920199990272522
      ],
      "min": [
        -0.97511601448059082,
        -0.11267299950122833,
        -0.97454601526260376
      ],
      "type": "VEC3"
    },
    {
      "bufferView": 2,
      "byteOffset": 344856,
      "componentType": 5126,
      "count": 9278,
      "max": [
        1,
        1,
        1
      ],
      "min": [
        -1,
        -1,
        -1
      ],
      "type": "VEC3"
    },
    {
      "bufferView": 3,
      "byteOffset": 155680,
      "componentType": 5126,
      "count": 9278,
      "max": [
        0,
        0,
        0,
        1
      ],
      "min": [
        0,
        0,
        0,
        1
      ],
      "type": "VEC4"
    },
    {
      "bufferView": 1,
      "byteOffset": 77840,
      "componentType": 5126,
      "count": 9278,
      "max": [
        0,
        0
      ],
      "min": [
        0,
        0
      ],
      "type": "VEC2"
    },
    {
      "bufferView": 0,
      "byteOffset": 142512,
      "componentType": 5125,
      "count": 38838,
      "max": [
        9277
      ],
      "min": [
        0
      ],
      "type": "SCALAR"
    },
    {
      "bufferView": 2,
      "byteOffset": 456192,
      "componentType": 5126,
      "count": 7440,
      "max": [
        0.97245597839355469,
        0.059645000845193863,
        0.65351599454879761
      ],
      "min": [
        -0.85258901119232178,
        -0.059645000845193863,
        0.23017099499702454
      ],
      "type": "VEC3"
    },
    {
      "bufferView": 2,
      "byteOffset": 545472,
      "componentType": 5126,
      "count": 7440,
      "max": [
        0.99757766723632812,
        0.99628394842147827,
        0.97161585092544556
      ],
      "min": [
        -0.99921882152557373,
        -0.99628394842147827,
        -0.9993898868560791
      ],
      "type": "VEC3"
    },
    {
      "bufferView": 3,
      "byteOffset": 304128,
      "componentType": 5126,
      "count": 7440,
      "max": [
        0,
        0,
        0,
        1
      ],
      "min": [
        0,
        0,
        0,
        1
      ],
      "type": "VEC4"
    },
    {
      "bufferView": 1,
      "byteOffset": 152064,
      "componentType": 5126,
      "count": 7440,
      "max": [
        0,
        0
      ],
      "min": [
        0,
        0
      ],
      "type": "VEC2"
    },
    {
      "bufferView": 0,
      "byteOffset": 297864,
      "componentType": 5125,
      "count": 38400,
      "max": [
        7439
      ],
      "min": [
        0
      ],
      "type": "SCALAR"
    },
    {
      "bufferView": 2,
      "byteOffset": 634752,
      "componentType": 5126,
      "count": 7440,
      "max": [
        0.30764400959014893,
        0.2411080002784729,
        1.1675800085067749
      ],
      "min": [
        -1.0048569440841675,
        -0.2411080002784729,
        -0.053412001579999924
      ],
      "type": "VEC3"
    },
    {
      "bufferView": 2,
      "byteOffset": 724032,
      "componentType": 5126,
      "count": 7440,
      "max": [
        0.99999630451202393,
        0.99628347158432007,
        1
      ],
      "min": [
        -0.99987339973449707,
        -0.99628347158432007,
        -1
      ],
      "type": "VEC3"
    },
    {
      "bufferView": 3,
      "byteOffset": 423168,
      "componentType": 5126,
      "count": 7440,
      "max": [
        0,
        0,
        0,
        1
      ],
      "min": [
        0,
        0,
        0,
        1
      ],
      "type": "VEC4"
    },
    {
      "bufferView": 1,
      "byteOffset": 211584,
      "componentType": 5126,
      "count": 7440,
      "max": [
        0,
        0
      ],
      "min": [
        0,
        0
      ],
      "type": "VEC2"
    },
    {
      "bufferView": 0,
      "byteOffset": 451464,
      "componentType": 5125,
      "count": 38400,
      "max": [
        7439
      ],
      "min": [
        0
      ],
      "type": "SCALAR"
    },
    {
      "bufferView": 2,
      "byteOffset": 813312,
      "componentType": 5126,
      "count": 7440,
      "max": [
        0.85258901119232178,
        0.059645000845193863,
        0.65351599454879761
      ],
      "min": [
        -0.9999849796295166,
        -0.059645000845193863,
        0.092059999704360962
      ],
      "type": "VEC3"
    },
    {
      "bufferView": 2,
      "byteOffset": 902592,
      "componentType": 5126,
      "count": 7440,
      "max": [
        0.9994843602180481,
        0.99628275632858276,
        0.99589580297470093
      ],
      "min": [
        -0.99757766723632812,
        -0.99628275632858276,
        -0.9993898868560791
      ],
      "type": "VEC3"
    },
    {
      "bufferView": 3,
      "byteOffset": 542208,
      "componentType": 5126,
      "count": 7440,
      "max": [
        0,
        0,
        0,
        1
      ],
      "min": [
        0,
        0,
        0,
        1
      ],
      "type": "VEC4"
    },
    {
      "bufferView": 1,
      "byteOffset": 271104,
      "componentType": 5126,
      "count": 7440,
      "max": [
        0,
        0
      ],
      "min": [
        0,
        0
      ],
      "type": "VEC2"
    },
    {
      "bufferView": 0,
      "byteOffset": 605064,
      "componentType": 5125,
      "count": 38400,
      "max": [
        7439
      ],
      "min": [
        0
      ],
      "type": "SCALAR"
    },
    {
      "bufferView": 2,
      "byteOffset": 991872,
      "componentType": 5126,
      "count": 7440,
      "max": [
        1.0048569440841675,
        0.059645000845193863,
        0.52643501758575439
      ],
      "min": [
        0.78677898645401001,
        -0.059645000845193863,
        -0.053412001579999924
      ],
      "type": "VEC3"
    },
    {
      "bufferView": 2,
      "byteOffset": 1081152,
      "componentType": 5126,
      "count": 7440,
      "max": [
        0.99983781576156616,
        0.99628347158432007,
        0.99724936485290527
      ],
      "min": [
        -0.99999630451202393,
        -0.99628347158432007,
        -0.99949568510055542
      ],
      "type": "VEC3"
    },
    {
      "bufferView": 3,
      "byteOffset": 661248,
      "componentType": 5126,
      "count": 7440,
      "max": [
        0,
        0,
        0,
        1
      ],
      "min": [
        0,
        0,
        0,
        1
      ],
      "type": "VEC4"
    },
    {
      "bufferView": 1,
      "byteOffset": 330624,
      "componentType": 5126,
      "count": 7440,
      "max": [
        0,
        0
      ],
      "min": [
        0,
        0
      ],
      "type": "VEC2"
    },
    {
      "bufferView": 0,
      "byteOffset": 758664,
      "componentType": 5125,
      "count": 38400,
      "max": [
        7439
      ],
      "min": [
        0
      ],
      "type": "SCALAR"
    },
    {
      "bufferView": 2,
      "byteOffset": 1170432,
      "componentType": 5126,
      "count": 7440,
      "max": [
        -0.78677898645401001,
        0.059645000845193863,
        0.52643501758575439
      ],
      "min": [
        -0.97245597839355469,
        -0.059645000845193863,
        0.23017099499702454
      ],
      "type": "VEC3"
    },
    {
      "bufferView": 2,
      "byteOffset": 1259712,
      "componentType": 5126,
      "count": 7440,
      "max": [
        0.99964708089828491,
        0.99628394842147827,
        0.97161585092544556
      ],
      "min": [
        -0.94905227422714233,
        -0.99628394842147827,
        -0.99949568510055542
      ],
      "type": "VEC3"
    },
    {
      "bufferView": 3,
      "byteOffset": 780288,
      "componentType": 5126,
      "count": 7440,
      "max": [
        0,
        0,
        0,
        1
      ],
      "min": [
        0,
        0,
        0,
        1
      ],
      "type": "VEC4"
    },
    {
      "bufferView": 1,
      "byteOffset": 390144,
      "componentType": 5126,
      "count": 7440,
      "max": [
        0,
        0
      ],
      "min": [
        0,
        0
      ],
      "type": "VEC2"
    },
    {
      "bufferView": 0,
      "byteOffset": 912264,
      "componentType": 5125,
      "count": 38400,
      "max": [
        7439
      ],
      "min": [
        0
      ],
      "type": "SCALAR"
    },
    {
      "bufferView": 2,
      "byteOffset": 1348992,
      "componentType": 5126,
      "count": 7534,
      "max": [
        0.9999849796295166,
        0.2049420028924942,
        1.0828119516372681
      ],
      "min": [
        -0.8224719762802124,
        -0.2049420028924942,
        0.092059999704360962
      ],
      "type": "VEC3"
    },
    {
      "bufferView": 2,
      "byteOffset": 1439400,
      "componentType": 5126,
      "count": 7534,
      "max": [
        0.99894475936889648,
        1,
        0.99589580297470093
      ],
      "min": [
        -0.9994843602180481,
        -1,
        -0.9985383152961731
      ],
      "type": "VEC3"
    },
    {
      "bufferView": 3,
      "byteOffset": 899328,
      "componentType": 5126,
      "count": 7534,
      "max": [
        0,
        0,
        0,
        1
      ],
      "min": [
        0,
        0,
        0,
        1
      ],
      "type": "VEC4"
    },
    {
      "bufferView": 1,
      "byteOffset": 449664,
      "componentType": 5126,
      "count": 7534,
      "max": [
        0,
        0
      ],
      "min": [
        0,
        0
      ],
      "type": "VEC2"
    },
    {
      "bufferView": 0,
      "byteOffset": 1065864,
      "componentType": 5125,
      "count": 38592,
      "max": [
        7533
      ],
      "min": [
        0
      ],
      "type": "SCALAR"
    },
    {
      "bufferView": 2,
      "byteOffset": 1529808,
      "componentType": 5126,
      "count": 8940,
      "max": [
        0.8224719762802124,
        0.24533499777317047,
        1.0828119516372681
      ],
      "min": [
        -0.76881897449493408,
        -0.24533499777317047,
        0.58595997095108032
      ],
      "type": "VEC3"
    },
    {
      "bufferView": 2,
      "byteOffset": 1637088,
      "componentType": 5126,
      "count": 8940,
      "max": [
        0.88082826137542725,
        1,
        0.8347022533416748
      ],
      "min": [
        -0.99894475936889648,
        -1,
        -0.9985383152961731
      ],
      "type": "VEC3"
    },
    {
      "bufferView": 3,
      "byteOffset": 1019872,
      "componentType": 5126,
      "count": 8940,
      "max": [
        0,
        0,
        0,
        1
      ],
      "min": [
        0,
        0,
        0,
        1
      ],
      "type": "VEC4"
    },
    {
      "bufferView": 1,
      "byteOffset": 509936,
      "componentType": 5126,
      "count": 8940,
      "max": [
        0,
        0
      ],
      "min": [
        0,
        0
      ],
      "type": "VEC2"
    },
    {
      "bufferView": 0,
      "byteOffset": 1220232,
      "componentType": 5125,
      "count": 43980,
      "max": [
        8939
      ],
      "min": [
        0
      ],
      "type": "SCALAR"
    },
    {
      "bufferView": 2,
      "byteOffset": 1744368,
      "componentType": 5126,
      "count": 2560,
      "max": [
        0.28862899541854858,
        0.28862899541854858,
        1.0564639568328857
      ],
      "min": [
        -0.28862899541854858,
        -0.28862899541854858,
        0.83774900436401367
      ],
      "type": "VEC3"
    },
    {
      "bufferView": 2,
      "byteOffset": 1775088,
      "componentType": 5126,
      "count": 2560,
      "max": [
        1,
        1,
        1
      ],
      "min": [
        -1,
        -1,
        -1
      ],
      "type": "VEC3"
    },
    {
      "bufferView": 3,
      "byteOffset": 1162912,
      "componentType": 5126,
      "count": 2560,
      "max": [
        0,
        0,
        0,
        1
      ],
      "min": [
        0,
        0,
        0,
        1
      ],
      "type": "VEC4"
    },
    {
      "bufferView": 1,
      "byteOffset": 581456,
      "componentType": 5126,
      "count": 2560,
      "max": [
        0,
        0
      ],
      "min": [
        0,
        0
      ],
      "type": "VEC2"
    },
    {
      "bufferView": 0,
      "byteOffset": 1396152,
      "componentType": 5125,
      "count": 12288,
      "max": [
        2559
      ],
      "min": [
        0
      ],
      "type": "SCALAR"
    },
    {
      "bufferView": 2,
      "byteOffset": 1805808,
      "componentType": 5126,
      "count": 7072,
      "max": [
        1.0095069408416748,
        0.28373000025749207,
        1.1888279914855957
      ],
      "min": [
        -1.0095069408416748,
        -0.28373000025749207,
        -0.047798998653888702
      ],
      "type": "VEC3"
    },
    {
      "bufferView": 2,
      "byteOffset": 1890672,
      "componentType": 5126,
      "count": 7072,
      "max": [
        0.99974232912063599,
        0.9987984299659729,
        1
      ],
      "min": [
        -0.99974232912063599,
        -0.9987984299659729,
        -0.99853581190109253
      ],
      "type": "VEC3"
    },
    {
      "bufferView": 0,
      "byteOffset": 1445304,
      "componentType": 5125,
      "count": 11778,
      "max": [
        7071
      ],
      "min": [
        0
      ],
      "type": "SCALAR"
    }
  ],
  "asset": {
    "extras": {
      "author": "Hector.Celis (https://sketchfab.com/Hector.Celis)",
      "license": "CC-BY-4.0 (http://creativecommons.org/licenses/by/4.0/)",
      "source": "https://sketchfab.com/3d-models/simple-ring-99c48e9728604478884611612a39c0c2",
      "title": "Simple Ring"
    },
    "generator": "Sketchfab-6.2.0",
    "version": "2.0"
  },
  "bufferViews": [
    {
      "buffer": 0,
      "byteLength": 1492416,
      "byteOffset": 0,
      "name": "floatBufferViews",
      "target": 34963
    },
    {
      "buffer": 0,
      "byteLength": 601936,
      "byteOffset": 1492416,
      "byteStride": 8,
      "name": "floatBufferViews",
      "target": 34962
    },
    {
      "buffer": 0,
      "byteLength": 1975536,
      "byteOffset": 2094352,
      "byteStride": 12,
      "name": "floatBufferViews",
      "target": 34962
    },
    {
      "buffer": 0,
      "byteLength": 1203872,
      "byteOffset": 4069888,
      "byteStride": 16,
      "name": "floatBufferViews",
      "target": 34962
    }
  ],
  "buffers": [
    {
      "byteLength": 5273760,
      "uri": "scene.bin"
    }
  ],
  "materials": [
    {
      "doubleSided": true,
      "name": "Metal_1",
      "pbrMetallicRoughness": {
        "baseColorFactor": [
          1,
          0.76815114724750699,
          0.33716361504833037,
          1
        ],
        "metallicFactor": 1,
        "roughnessFactor": 0.10000000000000001
      }
    },
    {
      "alphaMode": "BLEND",
      "doubleSided": true,
      "name": "Gem_1",
      "pbrMetallicRoughness": {
        "baseColorFactor": [
          1,
          1,
          1,
          0.8
        ],
        "metallicFactor": 1,
        "roughnessFactor": 0.15
      }
    }
  ],
  "meshes": [
    {
      "primitives": [
        {
          "attributes": {
            "NORMAL": 1,
            "POSITION": 0,
            "TANGENT": 2,
            "TEXCOORD_0": 3
          },
          "indices": 4,
          "material": 0,
          "mode": 4
        }
      ]
    },
    {
      "primitives": [
        {
          "attributes": {
            "NORMAL": 6,
            "POSITION": 5,
            "TANGENT": 7,
            "TEXCOORD_0": 8
          },
          "indices": 9,
          "material": 0,
          "mode": 4
        }
      ]
    },
    {
      "primitives": [
        {
          "attributes": {
            "NORMAL": 11,
            "POSITION": 10,
            "TANGENT": 12,
            "TEXCOORD_0": 13
          },
          "indices": 14,
          "material": 0,
          "mode": 4
        }
      ]
    },
    {
      "primitives": [
        {
          "attributes": {
            "NORMAL": 16,
            "POSITION": 15,
            "TANGENT": 17,
            "TEXCOORD_0": 18
          },
          "indices": 19,
          "material": 0,
          "mode": 4
        }
      ]
    },
    {
      "primitives": [
        {
          "attributes": {
            "NORMAL": 21,
            "POSITION": 20,
            "TANGENT": 22,
            "TEXCOORD_0": 23
          },
          "indices": 24,
          "material": 0,
          "mode": 4
        }
      ]
    },
    {
      "primitives": [
        {
          "attributes": {
            "NORMAL": 26,
            "POSITION": 25,
            "TANGENT": 27,
            "TEXCOORD_0": 28
          },
          "indices": 29,
          "material": 0,
          "mode": 4
        }
      ]
    },
    {
      "primitives": [
        {
          "attributes": {
            "NORMAL": 31,
            "POSITION": 30,
            "TANGENT": 32,
            "TEXCOORD_0": 33
          },
          "indices": 34,
          "material": 0,
          "mode": 4
        }
      ]
    },
    {
      "primitives": [
        {
          "attributes": {
            "NORMAL": 36,
            "POSITION": 35,
            "TANGENT": 37,
            "TEXCOORD_0": 38
          },
          "indices": 39,
          "material": 0,
          "mode": 4
        }
      ]
    },
    {
      "primitives": [
        {
          "attributes": {
            "NORMAL": 41,
            "POSITION": 40,
            "TANGENT": 42,
            "TEXCOORD_0": 43
          },
          "indices": 44,
          "material": 0,
          "mode": 4
        }
      ]
    },
    {
      "primitives": [
        {
          "attributes": {
            "NORMAL": 46,
            "POSITION": 45,
            "TANGENT": 47,
            "TEXCOORD_0": 48
          },
          "indices": 49,
          "material": 0,
          "mode": 4
        }
      ]
    },
    {
      "primitives": [
        {
          "attributes": {
            "NORMAL": 51,
            "POSITION": 50
          },
          "indices": 52,
          "material": 1,
          "mode": 4
        }
      ]
    }
  ],
  "nodes": [
    {
      "children": [
        1
      ],
      "name": "RootNode (gltf orientation matrix)",
      "rotation": [
        -0.70710678118654746,
        -0,
        -0,
        0.70710678118654757
      ]
    },
    {
      "children": [
        2
      ],
      "name": "RootNode (model correction matrix)"
    },
    {
      "children": [
        3,
        4,
        5,
        6,
        7,
        8,
        9,
        10,
        11,
        12,
        13
      ],
      "name": "Simple_Ring_1.obj.cleaner.materialmerger.gles"
    },
    {
      "mesh": 0,
      "name": ""
    },
    {
      "mesh": 1,
      "name": ""
    },
    {
      "mesh": 2,
      "name": ""
    },
    {
      "mesh": 3,
      "name": ""
    },
    {
      "mesh": 4,
      "name": ""
    },
    {
      "mesh": 5,
      "name": ""
    },
    {
      "mesh": 6,
      "name": ""
    },
    {
      "mesh": 7,
      "name": ""
    },
    {
      "mesh": 8,
      "name": ""
    },
    {
      "mesh": 9,
      "name": ""
    },
    {
      "mesh": 10,
      "name": ""
    }
  ],
  "scene": 0,
  "scenes": [
    {
      "name": "OSG_Scene",
      "nodes": [
        0
      ]
    }
  ]
}

